<?xml version="1.0" encoding="iso-8859-1"?>
<!-- Uploaded to: SVG Repo, www.svgrepo.com, Generator: SVG Repo Mixer Tools -->
<svg fill="#000000" height="800px" width="800px" version="1.1" id="Layer_1" xmlns="http://www.w3.org/2000/svg" xmlns:xlink="http://www.w3.org/1999/xlink" 
	 viewBox="0 0 512.101 512.101" xml:space="preserve">
<g>
	<g>
		<path d="M488.352,3.999c-3.712-4.587-10.432-5.269-14.997-1.579c-4.587,3.712-5.291,10.432-1.579,15.019
			c19.819,24.448,19.157,94.592,18.965,117.632c-0.171,18.261-7.808,35.605-21.333,50.176v-33.728
			c0-29.525-15.168-58.261-41.621-78.805l-26.496-20.608c-4.629-3.627-11.349-2.795-14.955,1.856
			c-3.627,4.651-2.795,11.349,1.877,14.976l26.496,20.629c21.483,16.704,33.344,38.699,33.344,61.952v51.285
			c-0.576,0.363-1.088,0.768-1.664,1.131c-14.528,8.789-28.267,16.96-41.003,24.533v-15.083c0-24.789-17.621-67.477-49.451-79.872
			c-5.461-2.176-11.669,0.576-13.803,6.08c-2.155,5.483,0.576,11.669,6.059,13.803c21.547,8.384,35.861,41.664,35.861,59.989v27.797
			c-19.52,11.691-35.968,21.76-48.256,30.101l-27.648-52.224c-2.773-5.227-9.237-7.168-14.443-4.437
			c-5.184,2.752-7.189,9.216-4.437,14.421l25.6,48.341H205.899c-3.051-2.133-6.656-4.373-10.795-6.72
			c14.507-9.963,42.005-32.811,39.573-61.717c-0.469-5.888-5.824-10.347-11.52-9.728c-5.867,0.491-10.219,5.653-9.728,11.52
			c1.707,20.331-26.283,40.576-37.227,46.677c-0.981,0.555-1.728,1.323-2.453,2.112c-6.656-3.285-13.717-6.72-21.461-10.432
			c-7.808-3.755-15.957-7.701-24.235-11.755v-40.149c0-5.888-4.779-10.667-10.667-10.667s-10.667,4.779-10.667,10.667v29.44
			c-13.717-7.061-27.584-14.571-41.003-22.677c-0.576-0.384-1.088-0.811-1.664-1.173v-32.064c0-22.592,11.904-64.469,33.365-81.173
			c4.651-3.605,5.504-10.325,1.877-14.976c-3.648-4.672-10.347-5.504-14.955-1.877C55.947,94.751,42.72,144.223,42.72,170.719
			v14.549c-13.525-14.571-21.163-31.936-21.333-50.176C20.619,52.511,35.36,26.975,47.861,20.085
			c5.163-2.837,7.04-9.344,4.181-14.485c-2.859-5.184-9.387-7.019-14.485-4.203C2.997,20.426-0.395,86.922,0.032,135.285
			c0.299,30.848,16.341,59.392,44.331,79.936c1.579,2.624,4.16,4.437,7.317,4.949c1.024,0.661,1.941,1.387,2.987,2.027
			c29.611,17.856,62.187,33.515,88.363,46.101c21.675,10.411,40.171,19.392,50.091,26.176l37.611,188.096
			c3.435,17.088,18.581,29.483,35.989,29.483c17.408,0,32.555-12.395,35.989-29.483l37.675-188.395
			c15.147-11.179,41.813-27.072,75.179-46.933c12.971-7.723,27.029-16.085,41.877-25.045c1.045-0.64,1.963-1.365,2.987-2.027
			c3.136-0.533,5.739-2.325,7.317-4.971c27.968-20.544,44.011-49.088,44.309-79.936C512.501,88.309,510.176,30.965,488.352,3.999z"
			/>
	</g>
</g>
</svg>