<?xml version="1.0" encoding="iso-8859-1"?>
<!-- Uploaded to: SVG Repo, www.svgrepo.com, Generator: SVG Repo Mixer Tools -->
<svg version="1.1" id="Layer_1" xmlns="http://www.w3.org/2000/svg" xmlns:xlink="http://www.w3.org/1999/xlink" 
	 viewBox="0 0 512 512" xml:space="preserve">
<rect x="160.239" y="340.67" transform="matrix(-0.6383 -0.7698 0.7698 -0.6383 4.2388 743.8716)" style="fill:#5E3C16;" width="33.288" height="60.54"/>
<rect x="121.156" y="196.952" style="fill:#A16125;" width="50.131" height="280.46"/>
<g>
	<rect x="145.945" y="196.952" style="fill:#5E3C16;" width="25.335" height="280.46"/>
	<path style="fill:#5E3C16;" d="M171.283,196.951h-50.13V324.74c10.451-4.78,19.194-12.648,25.065-22.436
		c5.871,9.788,14.614,17.656,25.065,22.436V196.951H171.283z"/>
</g>
<rect x="371.125" y="351.629" style="fill:#A16125;" width="54.115" height="125.783"/>
<rect x="397.289" y="351.629" style="fill:#5E3C16;" width="27.951" height="125.783"/>
<path style="fill:#6DDE57;" d="M292.436,178.57c0-26.665-18.441-49.011-43.262-55.014c1.442-4.995,2.231-10.269,2.231-15.73
	c0-31.265-25.345-56.611-56.611-56.611c-5.514,0-10.839,0.796-15.876,2.266c0.073-0.895,0.121-1.798,0.121-2.712
	c0-18.126-14.694-32.821-32.821-32.821s-32.821,14.694-32.821,32.821c0,0.914,0.048,1.816,0.121,2.712
	c-5.038-1.47-10.364-2.265-15.876-2.265c-31.265,0-56.611,25.345-56.611,56.611c0,5.46,0.789,10.733,2.231,15.73
	C18.441,129.559,0,151.904,0,178.57c0,26.337,17.986,48.471,42.345,54.795c-0.853,3.908-1.316,7.961-1.316,12.124
	c0,31.265,25.345,56.611,56.611,56.611c20.634,0,38.684-11.043,48.577-27.537c9.894,16.494,27.943,27.537,48.577,27.537
	c31.265,0,56.611-25.345,56.611-56.611c0-4.163-0.463-8.218-1.315-12.124C274.45,227.041,292.436,204.907,292.436,178.57z"/>
<path style="fill:#488E53;" d="M487.587,494.051H23.777c-9.192,0-16.644-7.452-16.644-16.644c0-9.192,7.452-16.644,16.644-16.644
	h463.809c9.192,0,16.644,7.452,16.644,16.644C504.231,486.599,496.779,494.051,487.587,494.051z"/>
<g>
	<path style="fill:#6DDE57;" d="M293.763,375.106c-3.483,0-6.681-1.927-8.308-5.008s-1.416-6.807,0.548-9.683l112.18-164.306
		l112.18,164.306c1.964,2.877,2.175,6.604,0.548,9.683c-1.627,3.079-4.823,5.008-8.308,5.008H293.763z"/>
	<path style="fill:#6DDE57;" d="M329.338,259.522c-3.483,0-6.681-1.927-8.308-5.008c-1.627-3.08-1.416-6.807,0.548-9.683
		l76.605-112.201l76.605,112.201c1.964,2.877,2.175,6.604,0.548,9.683c-1.627,3.08-4.823,5.008-8.307,5.008H329.338z"/>
	<path style="fill:#6DDE57;" d="M358.413,178.523c-3.483,0-6.681-1.927-8.307-5.008c-1.627-3.08-1.416-6.807,0.548-9.683
		l40.721-59.642c1.537-2.25,4.086-3.597,6.811-3.597s5.274,1.346,6.811,3.597l40.72,59.642c1.964,2.877,2.175,6.604,0.548,9.683
		c-1.627,3.08-4.823,5.008-8.307,5.008H358.413z"/>
</g>
<g>
	<path style="fill:#488E53;" d="M445.715,163.831l-40.72-59.641c-1.537-2.25-4.086-3.597-6.811-3.597v77.929h39.772
		c3.483,0,6.681-1.927,8.308-5.008C447.891,170.435,447.679,166.708,445.715,163.831z"/>
	<path style="fill:#488E53;" d="M474.79,244.831L398.185,132.63v6.928v119.964h68.847c3.483,0,6.681-1.927,8.308-5.008
		C476.965,251.434,476.754,247.707,474.79,244.831z"/>
	<path style="fill:#488E53;" d="M510.364,360.414l-112.18-164.306v178.997h104.421c3.483,0,6.681-1.927,8.306-5.008
		C512.538,367.017,512.328,363.291,510.364,360.414z"/>
</g>
<rect x="371.125" y="375.108" style="fill:#5E3C16;" width="54.115" height="15.167"/>
<g>
	<polygon style="fill:#3A7545;" points="352.658,199.312 443.711,199.312 429.517,178.523 366.852,178.523 	"/>
	<polygon style="fill:#3A7545;" points="339.84,281.564 456.529,281.564 441.48,259.522 354.89,259.522 	"/>
</g>
<path style="fill:#488E53;" d="M292.436,178.57c0-26.665-18.441-49.011-43.262-55.014c1.442-4.995,2.231-10.269,2.231-15.73
	c0-31.265-25.345-56.611-56.611-56.611c-5.514,0-10.839,0.796-15.876,2.266c0.073-0.895,0.121-1.798,0.121-2.712
	c0-18.126-14.694-32.821-32.821-32.821l0,0v256.615l0,0c9.894,16.494,27.943,27.537,48.577,27.537
	c31.265,0,56.611-25.345,56.611-56.611c0-4.163-0.463-8.218-1.315-12.124C274.45,227.041,292.436,204.907,292.436,178.57z"/>
<path style="fill:#6DDE57;" d="M255.682,460.763H23.777c-9.192,0-16.644,7.452-16.644,16.644c0,9.192,7.452,16.644,16.644,16.644
	h231.905V460.763z"/>
</svg>